{"title":"Percy Jackson And The Lightning Thief 2010 BRRip 720p x264 AAC -","uid":8402091,"size":748729201,"categoryP":"video","categoryS":"hd___movies","magnet":"?xt=urn:btih:359e7f652feddfb8752429f65cb53183e6de4b86&amp;dn=Percy+Jackson+And+The+Lightning+Thief+2010+BRRip+720p+x264+AAC+-&amp;tr=udp%3A%2F%2Ftracker.openbittorrent.com%3A80&amp;tr=udp%3A%2F%2Fopen.demonii.com%3A1337&amp;tr=udp%3A%2F%2Ftracker.coppersurfer.tk%3A6969&amp;tr=udp%3A%2F%2Fexodus.desync.com%3A6969","seeders":6,"leechers":3,"uploader":"Vitamin_X","files":-1,"time":1366725120,"description":"_________________________  Visit us at _________________________\n  &lt;a href=&quot;\nhttp://p2pdl.com&quot; rel=&quot;nofollow&quot; target=&quot;_NEW&quot;&gt;\nhttp://p2pdl.com&lt;/a&gt;  ____________________________ &lt;a href=&quot; http://p2pdl.com&quot; rel=&quot;nofollow&quot; target=&quot;_NEW&quot;&gt; http://p2pdl.com&lt;/a&gt;\n\n\nPercy Jackson And The Lightning Thief 2010 BRRip 720p x264 AAC - PRiSTiNE [P2PDL]\n\nGenre: Adventure | Family | Fantasy\nPlot: A teenager discovers he's the descendant of \na Greek god and sets out on an adventure to \nsettle an on-going battle between the gods.\nDirector: Chris Columbus\nStars: Logan Lerman, Brandon T. Jackson, Steve Coogan\nRated: Rated PG for action violence and peril, some scary images and suggestive material, and mild language\n\nInfo: &lt;a href=&quot;\nhttp://www.imdb.com/title/tt0814255/&quot; rel=&quot;nofollow&quot; target=&quot;_NEW&quot;&gt;\nhttp://www.imdb.com/title/tt0814255/&lt;/a&gt;\n\nGeneral\nComplete name                  : Percy Jackson And The Lightning Thief 2010 BRRip 720p x264 AAC - PRiSTiNE.mp4\nFormat                         : MPEG-4\nFile size                      : 700 MiB\nDuration                       : 1h 58mn\nOverall bit rate mode          : Variable\nOverall bit rate               : 825 Kbps\n\nVideo\nFormat                         : AVC\nFormat/Info                    : Advanced Video Codec\nFormat profile                 : High &lt;a class=&quot;__cf_email__&quot; href=&quot;/cdn-cgi/l/email-protection&quot; data-cfemail=&quot;0c3d3c4c4038223d&quot;&gt;[email&amp;#160;protected]&lt;/a&gt;&lt;script cf-hash='f9e31' type=&quot;text/javascript&quot;&gt;\n/* &lt;![CDATA[ */!function(){try{var t=&quot;currentScript&quot;in document?document.currentScript:function(){for(var t=document.getElementsByTagName(&quot;script&quot;),e=t.length;e--;)if(t[e].getAttribute(&quot;cf-hash&quot;))return t[e]}();if(t&amp;&amp;t.previousSibling){var e,r,n,i,c=t.previousSibling,a=c.getAttribute(&quot;data-cfemail&quot;);if(a){for(e=&quot;&quot;,r=parseInt(a.substr(0,2),16),n=2;a.length-n;n+=2)i=parseInt(a.substr(n,2),16)^r,e+=String.fromCharCode(i);e=document.createTextNode(e),c.parentNode.replaceChild(e,c)}}}catch(u){}}();/* ]]&gt; */&lt;/script&gt;\nBit rate                       : 742 Kbps\nWidth                          : 1 280 pixels\nHeight                         : 544 pixels\nDisplay aspect ratio           : 2.35:1\nFrame rate mode                : Constant\nFrame rate                     : 23.976 fps\nBit depth                      : 10 bits\nStream size                    : 629 MiB (90%)\nWriting library                : x264 core 130 r2273 b3065e6\n\nAudio\nFormat                         : AAC\nFormat/Info                    : Advanced Audio Codec\nBit rate                       : 80.0 Kbps\nChannel(s)                     : 2 channels\nChannel positions              : Front: L R\nSampling rate                  : 48.0 KHz\nStream size                    : 67.9 MiB (10%)\nLanguage                       : English\n\nSubtitle                       : Yes (English)\nSource                         : 720p.BluRay.DTS.x264-HiDt (Thanks)\n\nScreenshots:\n &lt;a href=&quot;\nhttp://www.ultraimg.com/images/i4zMU.jpg&quot; rel=&quot;nofollow&quot; target=&quot;_NEW&quot;&gt;\nhttp://www.ultraimg.com/images/i4zMU.jpg&lt;/a&gt; &lt;a href=&quot;\nhttp://www.ultraimg.com/images/oPScH.jpg&quot; rel=&quot;nofollow&quot; target=&quot;_NEW&quot;&gt;\nhttp://www.ultraimg.com/images/oPScH.jpg&lt;/a&gt; &lt;a href=&quot;\nhttp://www.ultraimg.com/images/oDkqc.jpg&quot; rel=&quot;nofollow&quot; target=&quot;_NEW&quot;&gt;\nhttp://www.ultraimg.com/images/oDkqc.jpg&lt;/a&gt; &lt;a href=&quot;\nhttp://www.ultraimg.com/images/pf29H.jpg&quot; rel=&quot;nofollow&quot; target=&quot;_NEW&quot;&gt;\nhttp://www.ultraimg.com/images/pf29H.jpg&lt;/a&gt; &lt;a href=&quot;\nhttp://www.ultraimg.com/images/aVieb.jpg&quot; rel=&quot;nofollow&quot; target=&quot;_NEW&quot;&gt;\nhttp://www.ultraimg.com/images/aVieb.jpg&lt;/a&gt; &lt;a href=&quot;\nhttp://www.ultraimg.com/images/ONdnG.jpg&quot; rel=&quot;nofollow&quot; target=&quot;_NEW&quot;&gt;\nhttp://www.ultraimg.com/images/ONdnG.jpg&lt;/a&gt; &lt;a href=&quot;\nhttp://www.ultraimg.com/images/zABk.jpg&quot; rel=&quot;nofollow&quot; target=&quot;_NEW&quot;&gt;\nhttp://www.ultraimg.com/images/zABk.jpg&lt;/a&gt; &lt;a href=&quot;\nhttp://www.ultraimg.com/images/58U2A.jpg&quot; rel=&quot;nofollow&quot; target=&quot;_NEW&quot;&gt;\nhttp://www.ultraimg.com/images/58U2A.jpg&lt;/a&gt;\n\n----------------------------------------------------------------------------------------------------\n\n\nEncoded using revolutionary 10bit encoding, which enables us to provide you more crispier \nand sharper images at small sizes, just make sure you follow our instructions without a fault.\nRecommend to you to use latest version of VLC player. Install K-Lite Codec Pack or shark007 codecs\nin case of any kind of problem in playback (For non-VLC Media Player users). Alternatively, install\nCore AVC codecs, the fastest decoder that there is coupled with Community Center Codec Pack and play\non Windows Media Player Classic. Check sample to be sure.\nEnjoy!\n\nEncoder Notes:Looking For Early Access To Anything You Can Provide DVDScr, R5, DVDR, BluRay, Direct\nAudio, Music Releases and Seedboxes. We require dedicated servers, so as to do more \nand fast releases of movies.\nIf You Got anything to offer please contact us at &quot;&lt;a class=&quot;__cf_email__&quot; href=&quot;/cdn-cgi/l/email-protection&quot; data-cfemail=&quot;4f3f3d280f273a3c27612c2022&quot;&gt;[email&amp;#160;protected]&lt;/a&gt;&lt;script cf-hash='f9e31' type=&quot;text/javascript&quot;&gt;\n/* &lt;![CDATA[ */!function(){try{var t=&quot;currentScript&quot;in document?document.currentScript:function(){for(var t=document.getElementsByTagName(&quot;script&quot;),e=t.length;e--;)if(t[e].getAttribute(&quot;cf-hash&quot;))return t[e]}();if(t&amp;&amp;t.previousSibling){var e,r,n,i,c=t.previousSibling,a=c.getAttribute(&quot;data-cfemail&quot;);if(a){for(e=&quot;&quot;,r=parseInt(a.substr(0,2),16),n=2;a.length-n;n+=2)i=parseInt(a.substr(n,2),16)^r,e+=String.fromCharCode(i);e=document.createTextNode(e),c.parentNode.replaceChild(e,c)}}}catch(u){}}();/* ]]&gt; */&lt;/script&gt;&quot;.\n\nFace book Fan Page:   &lt;a href=&quot;\nhttp://www.fb.me/p2pdl&quot; rel=&quot;nofollow&quot; target=&quot;_NEW&quot;&gt;\nhttp://www.fb.me/p2pdl&lt;/a&gt;","torrent":{"xt":"urn:btih:359e7f652feddfb8752429f65cb53183e6de4b86","amp;dn":"Percy+Jackson+And+The+Lightning+Thief+2010+BRRip+720p+x264+AAC+-","amp;tr":["udp%3A%2F%2Ftracker.openbittorrent.com%3A80","udp%3A%2F%2Fopen.demonii.com%3A1337","udp%3A%2F%2Ftracker.coppersurfer.tk%3A6969","udp%3A%2F%2Fexodus.desync.com%3A6969"],"infoHash":"359e7f652feddfb8752429f65cb53183e6de4b86","infoHashBuffer":{"type":"Buffer","data":[53,158,127,101,47,237,223,184,117,36,41,246,92,181,49,131,230,222,75,134]},"announce":[],"urlList":[]}}